<svg width="155" height="32" viewBox="0 0 155 32" fill="none" xmlns="http://www.w3.org/2000/svg">
<path d="M48.9343 10.436L44.3263 23H41.2663L36.6583 10.436H39.3583L42.8143 20.426L46.2523 10.436H48.9343ZM54.8731 23.162C53.9131 23.162 53.0491 22.952 52.2811 22.532C51.5131 22.1 50.9071 21.494 50.4631 20.714C50.0311 19.934 49.8151 19.034 49.8151 18.014C49.8151 16.994 50.0371 16.094 50.4811 15.314C50.9371 14.534 51.5551 13.934 52.3351 13.514C53.1151 13.082 53.9851 12.866 54.9451 12.866C55.9051 12.866 56.7751 13.082 57.5551 13.514C58.3351 13.934 58.9471 14.534 59.3911 15.314C59.8471 16.094 60.0751 16.994 60.0751 18.014C60.0751 19.034 59.8411 19.934 59.3731 20.714C58.9171 21.494 58.2931 22.1 57.5011 22.532C56.7211 22.952 55.8451 23.162 54.8731 23.162ZM54.8731 20.966C55.3291 20.966 55.7551 20.858 56.1511 20.642C56.5591 20.414 56.8831 20.078 57.1231 19.634C57.3631 19.19 57.4831 18.65 57.4831 18.014C57.4831 17.066 57.2311 16.34 56.7271 15.836C56.2351 15.32 55.6291 15.062 54.9091 15.062C54.1891 15.062 53.5831 15.32 53.0911 15.836C52.6111 16.34 52.3711 17.066 52.3711 18.014C52.3711 18.962 52.6051 19.694 53.0731 20.21C53.5531 20.714 54.1531 20.966 54.8731 20.966ZM66.3516 23.162C65.3916 23.162 64.5276 22.952 63.7596 22.532C62.9916 22.1 62.3856 21.494 61.9416 20.714C61.5096 19.934 61.2936 19.034 61.2936 18.014C61.2936 16.994 61.5156 16.094 61.9596 15.314C62.4156 14.534 63.0336 13.934 63.8136 13.514C64.5936 13.082 65.4636 12.866 66.4236 12.866C67.3836 12.866 68.2536 13.082 69.0336 13.514C69.8136 13.934 70.4256 14.534 70.8696 15.314C71.3256 16.094 71.5536 16.994 71.5536 18.014C71.5536 19.034 71.3196 19.934 70.8516 20.714C70.3956 21.494 69.7716 22.1 68.9796 22.532C68.1996 22.952 67.3236 23.162 66.3516 23.162ZM66.3516 20.966C66.8076 20.966 67.2336 20.858 67.6296 20.642C68.0376 20.414 68.3616 20.078 68.6016 19.634C68.8416 19.19 68.9616 18.65 68.9616 18.014C68.9616 17.066 68.7096 16.34 68.2056 15.836C67.7136 15.32 67.1076 15.062 66.3876 15.062C65.6676 15.062 65.0616 15.32 64.5696 15.836C64.0896 16.34 63.8496 17.066 63.8496 18.014C63.8496 18.962 64.0836 19.694 64.5516 20.21C65.0316 20.714 65.6316 20.966 66.3516 20.966ZM84.6882 10.436L80.0802 23H77.0202L72.4122 10.436H75.1122L78.5682 20.426L82.0062 10.436H84.6882ZM90.627 23.162C89.667 23.162 88.803 22.952 88.035 22.532C87.267 22.1 86.661 21.494 86.217 20.714C85.785 19.934 85.569 19.034 85.569 18.014C85.569 16.994 85.791 16.094 86.235 15.314C86.691 14.534 87.309 13.934 88.089 13.514C88.869 13.082 89.739 12.866 90.699 12.866C91.659 12.866 92.529 13.082 93.309 13.514C94.089 13.934 94.701 14.534 95.145 15.314C95.601 16.094 95.829 16.994 95.829 18.014C95.829 19.034 95.595 19.934 95.127 20.714C94.671 21.494 94.047 22.1 93.255 22.532C92.475 22.952 91.599 23.162 90.627 23.162ZM90.627 20.966C91.083 20.966 91.509 20.858 91.905 20.642C92.313 20.414 92.637 20.078 92.877 19.634C93.117 19.19 93.237 18.65 93.237 18.014C93.237 17.066 92.985 16.34 92.481 15.836C91.989 15.32 91.383 15.062 90.663 15.062C89.943 15.062 89.337 15.32 88.845 15.836C88.365 16.34 88.125 17.066 88.125 18.014C88.125 18.962 88.359 19.694 88.827 20.21C89.307 20.714 89.907 20.966 90.627 20.966ZM102.106 23.162C101.146 23.162 100.282 22.952 99.5135 22.532C98.7455 22.1 98.1395 21.494 97.6955 20.714C97.2635 19.934 97.0475 19.034 97.0475 18.014C97.0475 16.994 97.2695 16.094 97.7135 15.314C98.1695 14.534 98.7875 13.934 99.5675 13.514C100.348 13.082 101.218 12.866 102.178 12.866C103.138 12.866 104.008 13.082 104.788 13.514C105.568 13.934 106.18 14.534 106.624 15.314C107.08 16.094 107.308 16.994 107.308 18.014C107.308 19.034 107.074 19.934 106.606 20.714C106.15 21.494 105.526 22.1 104.734 22.532C103.954 22.952 103.078 23.162 102.106 23.162ZM102.106 20.966C102.562 20.966 102.988 20.858 103.384 20.642C103.792 20.414 104.116 20.078 104.356 19.634C104.596 19.19 104.716 18.65 104.716 18.014C104.716 17.066 104.464 16.34 103.96 15.836C103.468 15.32 102.862 15.062 102.142 15.062C101.422 15.062 100.816 15.32 100.324 15.836C99.8435 16.34 99.6035 17.066 99.6035 18.014C99.6035 18.962 99.8375 19.694 100.306 20.21C100.786 20.714 101.386 20.966 102.106 20.966Z" fill="white"/>
<path d="M116.284 16.556C116.992 16.688 117.574 17.042 118.03 17.618C118.486 18.194 118.714 18.854 118.714 19.598C118.714 20.27 118.546 20.864 118.21 21.38C117.886 21.884 117.412 22.28 116.788 22.568C116.164 22.856 115.426 23 114.574 23H109.156V10.436H114.34C115.192 10.436 115.924 10.574 116.536 10.85C117.16 11.126 117.628 11.51 117.94 12.002C118.264 12.494 118.426 13.052 118.426 13.676C118.426 14.408 118.228 15.02 117.832 15.512C117.448 16.004 116.932 16.352 116.284 16.556ZM111.676 15.62H113.98C114.58 15.62 115.042 15.488 115.366 15.224C115.69 14.948 115.852 14.558 115.852 14.054C115.852 13.55 115.69 13.16 115.366 12.884C115.042 12.608 114.58 12.47 113.98 12.47H111.676V15.62ZM114.214 20.948C114.826 20.948 115.3 20.804 115.636 20.516C115.984 20.228 116.158 19.82 116.158 19.292C116.158 18.752 115.978 18.332 115.618 18.032C115.258 17.72 114.772 17.564 114.16 17.564H111.676V20.948H114.214ZM120.074 17.978C120.074 16.97 120.272 16.076 120.668 15.296C121.076 14.516 121.622 13.916 122.306 13.496C123.002 13.076 123.776 12.866 124.628 12.866C125.372 12.866 126.02 13.016 126.572 13.316C127.136 13.616 127.586 13.994 127.922 14.45V13.028H130.46V23H127.922V21.542C127.598 22.01 127.148 22.4 126.572 22.712C126.008 23.012 125.354 23.162 124.61 23.162C123.77 23.162 123.002 22.946 122.306 22.514C121.622 22.082 121.076 21.476 120.668 20.696C120.272 19.904 120.074 18.998 120.074 17.978ZM127.922 18.014C127.922 17.402 127.802 16.88 127.562 16.448C127.322 16.004 126.998 15.668 126.59 15.44C126.182 15.2 125.744 15.08 125.276 15.08C124.808 15.08 124.376 15.194 123.98 15.422C123.584 15.65 123.26 15.986 123.008 16.43C122.768 16.862 122.648 17.378 122.648 17.978C122.648 18.578 122.768 19.106 123.008 19.562C123.26 20.006 123.584 20.348 123.98 20.588C124.388 20.828 124.82 20.948 125.276 20.948C125.744 20.948 126.182 20.834 126.59 20.606C126.998 20.366 127.322 20.03 127.562 19.598C127.802 19.154 127.922 18.626 127.922 18.014ZM138.448 12.884C139.636 12.884 140.596 13.262 141.328 14.018C142.06 14.762 142.426 15.806 142.426 17.15V23H139.906V17.492C139.906 16.7 139.708 16.094 139.312 15.674C138.916 15.242 138.376 15.026 137.692 15.026C136.996 15.026 136.444 15.242 136.036 15.674C135.64 16.094 135.442 16.7 135.442 17.492V23H132.922V13.028H135.442V14.27C135.778 13.838 136.204 13.502 136.72 13.262C137.248 13.01 137.824 12.884 138.448 12.884ZM150.726 23L147.342 18.752V23H144.822V9.68H147.342V17.258L150.69 13.028H153.966L149.574 18.032L154.002 23H150.726Z" fill="#5CE1E6"/>
<path d="M16.4063 0C13.2417 -3.77363e-08 10.1483 0.938383 7.51713 2.69649C4.88594 4.45459 2.83518 6.95345 1.62418 9.87706C0.413176 12.8007 0.096322 16.0177 0.713685 19.1214C1.33105 22.2251 2.8549 25.0761 5.09254 27.3137C7.33018 29.5513 10.1811 31.0752 13.2848 31.6926C16.3885 32.3099 19.6056 31.9931 22.5292 30.7821C25.4528 29.5711 27.9517 27.5203 29.7098 24.8891C31.4679 22.2579 32.4062 19.1645 32.4062 16L24.4062 16C24.4062 17.5823 23.9371 19.129 23.058 20.4446C22.179 21.7602 20.9295 22.7855 19.4677 23.391C18.0059 23.9965 16.3974 24.155 14.8455 23.8463C13.2937 23.5376 11.8682 22.7757 10.7494 21.6569C9.63057 20.538 8.86865 19.1126 8.55997 17.5607C8.25129 16.0089 8.40971 14.4003 9.01521 12.9385C9.62072 11.4767 10.6461 10.2273 11.9617 9.34824C13.2773 8.46919 14.824 8 16.4063 8L16.4063 0Z" fill="white"/>
<path d="M16.4063 0C14.3051 -2.5056e-08 12.2245 0.413852 10.2833 1.21793C8.34211 2.022 6.57828 3.20055 5.09254 4.68629C3.6068 6.17203 2.42825 7.93586 1.62418 9.87707C0.820102 11.8183 0.40625 13.8989 0.40625 16L8.40625 16C8.40625 14.9494 8.61318 13.9091 9.01521 12.9385C9.41725 11.9679 10.0065 11.086 10.7494 10.3431C11.4923 9.60028 12.3742 9.011 13.3448 8.60896C14.3154 8.20693 15.3557 8 16.4063 8L16.4063 0Z" fill="#5CE1E6"/>
<circle cx="16.4062" cy="16" r="5" fill="#5CE1E6"/>
<path d="M21.4062 16C21.4062 15.3434 21.2769 14.6932 21.0256 14.0866C20.7744 13.48 20.4061 12.9288 19.9418 12.4645C19.4775 12.0002 18.9263 11.6319 18.3197 11.3806C17.713 11.1293 17.0629 11 16.4062 11C15.7496 11 15.0995 11.1293 14.4928 11.3806C13.8862 11.6319 13.335 12.0002 12.8707 12.4645C12.4064 12.9288 12.0381 13.48 11.7869 14.0866C11.5356 14.6932 11.4062 15.3434 11.4063 16L16.4062 16H21.4062Z" fill="white"/>
</svg>
